<svg width="24" height="31" viewBox="0 0 24 31" fill="none" xmlns="http://www.w3.org/2000/svg">
<path d="M4.46376 21.0516C4.05656 20.1588 4.0315 19.901 4.92734 19.5991C6.53107 19.0961 5.42851 20.1776 7.63364 22.6928H7.65244V16.7885C7.72761 13.632 10.4089 10.9911 13.7729 10.9911C17.1496 10.9911 19.8935 13.7263 19.8935 17.0777C19.8935 21.0642 16.0846 24.1955 11.8435 22.9443C11.1857 22.6802 11.7119 20.951 12.3759 21.1459C15.6962 21.1459 17.9765 20.5109 17.9765 17.0966C17.9765 13.261 13.1465 11.4627 10.6532 14.2922C9.181 15.9522 9.55061 16.9394 9.55061 24.2018C12.7268 26.1511 16.9616 25.5852 19.599 22.938C21.1526 21.3786 22.0109 19.291 22.0109 17.0903C22.0109 14.877 21.1464 12.802 19.5802 11.2238C18.0266 9.66438 15.9593 8.80295 13.7354 8.80295C11.5114 8.80295 9.42532 9.67067 7.87796 11.2238C7.85917 11.2426 6.87563 12.2613 6.54987 12.7266L6.51855 12.7643C6.31181 13.0598 6.12388 13.3365 5.25936 13.1478C4.8271 13.0409 4.36352 12.7831 4.36352 12.4059V0.660221C4.36352 0.34583 4.60784 0 5.02131 0H20.1378C20.6577 0 20.6577 0.729387 20.6577 0.949461C20.6577 1.19469 20.6577 1.89892 20.1378 1.89892H6.1552V10.2554H6.17399C12.7017 3.35141 23.8903 7.99182 23.8903 17.1029C23.8903 28.3015 8.55454 30.955 4.46376 21.0516ZM8.42925 4.65299C8.39792 4.91708 8.71742 6.19351 9.34388 5.94828C17.1621 2.96156 22.0485 8.48856 22.4619 8.48856C22.7626 8.48856 23.8903 7.52652 23.3578 7.05494C17.5192 1.45877 8.6673 3.47088 8.42925 4.65299ZM22.6123 25.4783C15.7212 32.3886 3.88115 29.3013 1.81383 18.9263C1.81383 18.1592 -0.0906024 18.461 0.0033665 19.1338C1.50687 30.0369 15.4143 35.2873 23.9091 26.761C24.3413 26.2705 23.1197 24.9752 22.6123 25.4783ZM11.3736 18.6811C11.3736 18.9326 11.643 19.1401 11.7182 19.2156C11.9061 19.4042 12.1003 19.4923 12.2506 19.4923C12.4887 19.4923 12.4135 19.5048 13.6477 18.2661C14.8755 19.4797 14.8442 19.4923 15.0447 19.4923C15.3829 19.4923 16.2036 18.8383 15.715 18.3479L14.6312 17.2601L15.7714 16.1157C16.166 15.6881 15.1386 14.7449 14.7565 15.1285L13.6351 16.254C12.4699 15.0719 12.4824 15.0279 12.2882 15.0279C11.975 15.0279 11.1606 15.7636 11.5114 16.1157L12.6516 17.2601C11.5177 18.3856 11.3736 18.4673 11.3736 18.6811Z" fill="#259AF2"/>
</svg>
