<svg width="100" height="100" viewBox="0 0 100 100" fill="none" xmlns="http://www.w3.org/2000/svg">
<g clip-path="url(#clip0_34_3)">
<path d="M0 50V70C0 72.7656 2.23437 75 5 75H10V45H5C2.23437 45 0 47.2344 0 50ZM72.5 25H55V15C55 12.2344 52.7656 10 50 10C47.2344 10 45 12.2344 45 15V25H27.5C20.5937 25 15 30.5937 15 37.5V80C15 85.5156 19.4844 90 25 90H75C80.5156 90 85 85.5156 85 80V37.5C85 30.5937 79.4063 25 72.5 25ZM40 75H30V70H40V75ZM35 56.25C31.5469 56.25 28.75 53.4531 28.75 50C28.75 46.5469 31.5469 43.75 35 43.75C38.4531 43.75 41.25 46.5469 41.25 50C41.25 53.4531 38.4531 56.25 35 56.25ZM55 75H45V70H55V75ZM70 75H60V70H70V75ZM65 56.25C61.5469 56.25 58.75 53.4531 58.75 50C58.75 46.5469 61.5469 43.75 65 43.75C68.4531 43.75 71.25 46.5469 71.25 50C71.25 53.4531 68.4531 56.25 65 56.25ZM95 45H90V75H95C97.7656 75 100 72.7656 100 70V50C100 47.2344 97.7656 45 95 45Z" stroke="#F57F35" stroke-width="6"/>
</g>
<defs>
<clipPath id="clip0_34_3">
<rect width="100" height="100" fill="white"/>
</clipPath>
</defs>
</svg>
